<svg width="44" height="18" fill="none" xmlns="http://www.w3.org/2000/svg"><path d="M4.46 9.443l2.97-1.948c1.8-1.161 2.275-2.085 2.466-3.16C10.252 2.33 8.835.775 6.372.338 4.383-.016 2.693.514 1.62 1.61l1.65 1.53c.668-.646 1.538-.866 2.485-.697 1.168.207 1.678.819 1.524 1.687-.096.537-.37 1.074-1.515 1.832L.785 9.23l-.294 1.657 8.35 1.485.371-2.084-4.752-.845zm10.108 4.142c2.731.485 5.104-1.226 5.752-4.873.648-3.646-.99-6.07-3.72-6.556-2.715-.483-5.104 1.226-5.752 4.873-.648 3.646 1.005 6.073 3.72 6.556zm.385-2.163C13.69 11.198 12.99 10 13.437 7.49c.446-2.51 1.516-3.395 2.778-3.17 1.279.227 1.978 1.426 1.532 3.936-.447 2.51-1.516 3.395-2.794 3.167zm10.329 4.068c2.731.485 5.104-1.226 5.752-4.873.648-3.647-.99-6.071-3.72-6.557-2.715-.482-5.104 1.227-5.752 4.873-.648 3.647 1.005 6.074 3.72 6.557zm.385-2.163c-1.263-.225-1.962-1.424-1.516-3.934.446-2.51 1.516-3.394 2.779-3.17 1.278.227 1.977 1.426 1.53 3.936-.445 2.51-1.515 3.395-2.793 3.168zm12.443.518c2.951.525 5.02-.394 5.458-2.857.44-2.478-1.185-4.053-4.137-4.578l-4.783-.85-1.48 8.319-1.53-.272-.233 1.31 1.531.272-.252 1.42 2.573.458.252-1.42 3.41.606.233-1.31-3.41-.607.157-.884 2.21.393zm2.866-3.301c-.194 1.09-1.105 1.546-2.526 1.293l-2.194-.39.594-3.346 2.195.39c1.42.252 2.122.98 1.93 2.053z" fill="#262626"/></svg>