<svg width="45" height="21" fill="none" xmlns="http://www.w3.org/2000/svg"><path d="M4.554 9.957L7.58 8.1c1.837-1.106 2.34-2.016 2.563-3.083.418-1.993-.951-3.59-3.4-4.104C4.767.5 3.062.978 1.954 2.04l1.602 1.58c.689-.625 1.565-.818 2.506-.62 1.161.243 1.652.87 1.471 1.733-.111.533-.402 1.062-1.57 1.784L.888 9.631l-.345 1.647 8.301 1.74.434-2.071-4.723-.99zm9.976 4.45c2.714.569 5.138-1.07 5.898-4.694.76-3.625-.802-6.099-3.517-6.668-2.7-.565-5.139 1.07-5.899 4.694-.76 3.625.819 6.102 3.518 6.668zm.45-2.15c-1.255-.263-1.917-1.483-1.394-3.978.523-2.495 1.619-3.347 2.874-3.084 1.271.266 1.933 1.486 1.41 3.982-.523 2.495-1.619 3.346-2.89 3.08zm10.2 4.382c2.715.569 5.139-1.07 5.899-4.694.76-3.625-.803-6.099-3.517-6.668-2.7-.565-5.14 1.07-5.899 4.694-.76 3.626.818 6.102 3.517 6.668zm.45-2.15c-1.255-.263-1.916-1.483-1.393-3.978.523-2.495 1.619-3.347 2.874-3.084 1.271.267 1.933 1.487 1.41 3.982-.523 2.495-1.619 3.346-2.89 3.08zm12.422.9c2.934.614 5.03-.24 5.543-2.688.517-2.464-1.06-4.089-3.994-4.704l-4.755-.996-1.733 8.27-1.523-.32-.273 1.303 1.523.32-.296 1.412 2.558.536.296-1.413 3.39.71.272-1.302-3.39-.71.185-.879 2.197.46zm2.966-3.212c-.227 1.083-1.152 1.511-2.564 1.215l-2.181-.457.697-3.327 2.181.457c1.412.296 2.091 1.045 1.867 2.112z" fill="#262626"/></svg>