<svg width="34" height="15" fill="none" xmlns="http://www.w3.org/2000/svg"><path d="M4.781 6.801l-.939.077.002-2.212 4.808-.393-.175-2.147-7.031.574-.061 6.557 2.947-.24c2.091-.171 2.733.375 2.807 1.284.077.941-.7 1.57-2.035 1.679-1.202.098-2.435-.184-3.361-.773L.856 13.34c1.185.702 2.9 1.01 4.498.88 3.293-.269 4.646-2.175 4.479-4.224C9.665 7.95 8.189 6.523 4.78 6.801zm11.387 6.537c2.848-.233 4.763-2.568 4.451-6.384-.311-3.816-2.58-5.809-5.428-5.576-2.832.231-4.763 2.567-4.452 6.383.312 3.816 2.596 5.808 5.429 5.577zm-.185-2.263c-1.317.107-2.329-.908-2.543-3.534-.215-2.627.618-3.792 1.936-3.9 1.333-.109 2.345.906 2.56 3.533.214 2.626-.62 3.792-1.953 3.9zm12.534-2.753c3.08-.252 4.899-1.714 4.689-4.291C32.994 1.437 30.96.289 27.88.54l-4.989.407.711 8.706-1.597.13.112 1.372 1.597-.13.122 1.486 2.684-.22-.122-1.486 3.557-.29-.112-1.372-3.557.29-.075-.924 2.305-.188zm1.99-4.054c.092 1.14-.696 1.836-2.178 1.957l-2.289.187-.286-3.502 2.289-.187c1.482-.121 2.372.421 2.463 1.545z" fill="#000"/></svg>