<svg width="34" height="15" fill="none" xmlns="http://www.w3.org/2000/svg"><path d="M4.8 6.868l-.938.076.002-2.212 4.808-.392-.176-2.148-7.03.574-.062 6.558 2.948-.241c2.09-.171 2.732.375 2.806 1.284.077.941-.7 1.57-2.034 1.68-1.202.098-2.435-.184-3.362-.774l-.886 2.135c1.184.701 2.9 1.01 4.497.88 3.294-.27 4.646-2.176 4.479-4.224C9.685 8.015 8.209 6.589 4.8 6.868zm11.387 6.536c2.849-.232 4.763-2.567 4.452-6.383-.312-3.816-2.58-5.81-5.429-5.577-2.832.232-4.763 2.568-4.451 6.384.312 3.816 2.596 5.808 5.428 5.576zm-.185-2.263c-1.317.108-2.328-.907-2.543-3.534-.214-2.626.619-3.792 1.936-3.9 1.334-.109 2.345.906 2.56 3.533.214 2.627-.619 3.792-1.953 3.901zm12.534-2.753c3.08-.252 4.9-1.714 4.69-4.291C33.012 1.503 30.98.356 27.9.607l-4.99.408.712 8.706-1.598.13.112 1.371 1.598-.13.121 1.486 2.684-.219-.121-1.486 3.556-.291-.112-1.371-3.556.29-.076-.925 2.305-.188zm1.99-4.054c.093 1.14-.695 1.836-2.177 1.957l-2.29.187-.285-3.502 2.288-.187c1.482-.12 2.372.422 2.464 1.545z" fill="#000"/></svg>