<svg width="1109" height="151" fill="none" xmlns="http://www.w3.org/2000/svg"><path d="M111.399 109.079l12.726 25.027c-4.451 5.006-11.057 9.108-19.818 12.306C95.684 149.471 86.435 151 76.561 151c-22.67 0-41.097-6.883-55.283-20.648C7.094 116.309 0 98.025 0 75.5c0-21.969 6.676-40.044 20.027-54.227C33.378 7.091 52.153 0 76.352 0c9.18 0 17.733 1.39 25.66 4.171 7.927 2.781 14.255 6.466 18.984 11.054l-14.812 25.028c-9.735-5.98-19.68-8.968-29.832-8.968-11.821 0-21.626 3.893-29.414 11.68-7.65 7.646-11.474 18.492-11.474 32.535 0 12.792 4.103 23.429 12.308 31.91 8.206 8.204 18.845 12.305 31.918 12.305 11.683 0 22.252-3.545 31.709-10.636zm50.542 39.418h-33.587L189.06 2.503h29.832l60.707 145.994h-35.673l-12.1-30.659H174.04l-12.099 30.659zm57.368-61.943l-16.271-41.296-16.481 41.296h32.752zm132.597 21.899c0-6.118-7.163-12.583-21.487-19.396-4.173-1.808-7.858-3.476-11.057-5.006-3.06-1.668-6.536-3.893-10.431-6.674-3.755-2.92-6.884-5.91-9.387-8.968-2.364-3.06-4.45-6.883-6.258-11.471-1.669-4.589-2.434-9.525-2.295-14.808 0-11.68 4.311-21.621 12.934-29.825C312.547 4.102 323.952 0 338.137 0c18.636 0 32.961 5.353 42.975 16.06l-17.941 25.027c-4.033-3.754-7.58-6.326-10.639-7.717-2.921-1.39-6.746-2.085-11.474-2.085-4.59 0-8.206.973-10.848 2.92-2.503 1.946-3.755 4.588-3.755 7.925 0 3.754 1.46 7.091 4.381 10.01 3.06 2.92 6.815 5.354 11.265 7.3 4.589 1.808 9.527 4.102 14.812 6.883 5.284 2.781 10.152 5.77 14.602 8.968 4.59 3.06 8.345 7.44 11.266 13.14 3.059 5.562 4.589 12.097 4.589 19.605 0 12.514-4.798 22.803-14.394 30.867-9.318 8.065-21.209 12.097-35.673 12.097-10.57 0-20.583-2.155-30.04-6.465-9.597-4.311-16.064-10.151-19.401-17.52l18.983-22.733c3.755 4.866 8.484 8.69 14.186 11.471 5.702 2.642 11.404 3.962 17.106 3.962 4.312 0 7.649-.973 10.014-2.919 2.503-2.086 3.755-4.867 3.755-8.343zm182.461 40.044h-33.378V89.682h-53.196v58.815h-33.378V2.503h33.378v55.895h53.196V2.503h33.378v145.994zm37.526-.417V2.92c16.272-.834 31.014-1.251 44.226-1.251 16.133 0 28.302 3.267 36.507 9.802 8.345 6.396 12.517 15.225 12.517 26.488 0 14.32-5.563 25.166-16.689 32.535v.418c6.259 2.363 11.265 6.395 15.02 12.096 3.894 5.701 5.841 12.792 5.841 21.274 0 14.599-5.145 25.792-15.437 33.579-10.152 7.647-23.504 11.47-40.054 11.47-19.331 0-33.308-.417-41.931-1.251zm46.312-58.606h-12.934v27.322c3.06.834 6.815 1.251 11.265 1.251 12.934 0 19.401-5.145 19.401-15.434 0-8.76-5.91-13.14-17.732-13.14zm-2.503-56.521c-2.503 0-5.98.278-10.431.834v26.488h11.057c10.291 0 15.437-4.728 15.437-14.182 0-4.033-1.53-7.23-4.589-9.594-3.06-2.364-6.885-3.546-11.474-3.546zm99.756 115.544h-33.587L742.578 2.503h29.831l60.707 145.994h-35.673l-12.1-30.659h-57.785l-12.1 30.659zm57.369-61.943l-16.272-41.296-16.481 41.296h32.753zm174.858 22.525l12.726 25.027c-4.451 5.006-11.057 9.108-19.819 12.306-8.622 3.059-17.871 4.588-27.745 4.588-22.67 0-41.097-6.883-55.283-20.648-14.185-14.043-21.278-32.327-21.278-54.852 0-21.969 6.675-40.044 20.027-54.227C869.664 7.091 888.439 0 912.638 0c9.179 0 17.732 1.39 25.66 4.171 7.927 2.781 14.255 6.466 18.983 11.054L942.47 40.253c-9.735-5.98-19.679-8.968-29.832-8.968-11.821 0-21.626 3.893-29.414 11.68-7.649 7.646-11.474 18.492-11.474 32.535 0 12.792 4.103 23.429 12.308 31.91 8.206 8.204 18.845 12.305 31.918 12.305 11.682 0 22.252-3.545 31.709-10.636zm69.105 39.418h-33.375V2.503h33.375v63.612l47.78-63.612h40.05l-54.87 67.366 59.25 78.628h-42.35l-49.86-69.451v69.451z" fill="#DDD"/></svg>