<svg width="206" height="42" fill="none" xmlns="http://www.w3.org/2000/svg"><path d="M10.333.812l10.608 20.833L31.548.812h.99l8.345 32.491h-6.977l-4.243-16.102-8.486 16.102h-.943l-8.345-16.15-4.243 16.15H.999L9.343.812h.99zM42.68 21.788c0-3.154 1.147-5.94 3.442-8.362 2.325-2.453 5.406-3.679 9.24-3.679 3.835 0 6.899 1.163 9.193 3.488 2.358 2.357 3.52 5.208 3.49 8.553-.064 3.28-1.258 6.116-3.584 8.505-2.326 2.357-5.359 3.536-9.099 3.536-3.709 0-6.757-1.131-9.146-3.393-2.357-2.293-3.536-5.176-3.536-8.648zm6.506 0c0 1.816.566 3.313 1.697 4.491 1.195 1.21 2.688 1.816 4.48 1.816 1.854 0 3.346-.605 4.478-1.816 1.131-1.21 1.697-2.707 1.697-4.491 0-1.593-.534-3.026-1.603-4.3-1.1-1.338-2.624-2.007-4.573-2.007-1.76 0-3.221.589-4.384 1.768-1.195 1.146-1.792 2.66-1.792 4.539zm37.129 11.515V21.645L73.633 33.829h-1.32V10.273h6.223V21.93L91.265 9.747h1.273v23.556h-6.223zM75 0h5.28c0 .668.267 1.274.802 1.815a2.7 2.7 0 001.933.765c.817 0 1.46-.24 1.932-.717.472-.478.708-1.099.708-1.863h5.28c.063 2.134-.645 3.902-2.122 5.303-1.445 1.37-3.394 2.055-5.846 2.055-2.546 0-4.51-.67-5.893-2.007C75.691 3.981 75 2.197 75 0zm30.97 33.303h-6.694V1.481h6.694v14.143l10.419-14.143h7.308l-11.126 14.86 12.682 16.962h-8.392L105.97 18.061v15.242z" fill="#fff"/><path d="M142.505 26.184l4.29 3.297c-2.546 2.898-5.94 4.348-10.183 4.348-3.678 0-6.632-1.115-8.864-3.345-2.231-2.262-3.347-5.144-3.347-8.648 0-3.186 1.132-6.005 3.394-8.458 2.263-2.42 5.124-3.631 8.581-3.631 1.98 0 3.74.366 5.28 1.099s2.734 1.704 3.583 2.915a13.512 13.512 0 011.886 3.822c.44 1.338.66 2.692.66 4.062 0 .892-.047 1.72-.142 2.484h-16.689c.377 1.306 1.116 2.341 2.216 3.106 1.1.733 2.404 1.099 3.913 1.099 2.232 0 4.039-.717 5.422-2.15zm-11.692-6.833h10.183c-.157-1.21-.66-2.198-1.509-2.962-.848-.765-1.901-1.147-3.158-1.147-1.415 0-2.64.382-3.678 1.147-1.005.764-1.618 1.752-1.838 2.962zm25.624 13.952v6.02h-6.223V27.57h2.923c.629-1.18 1.084-2.517 1.367-4.014a27.33 27.33 0 00.519-4.157c.063-1.657.094-3.584.094-5.782v-3.345h18.339V27.57h3.913v11.755h-6.223v-6.02h-14.709zm3.112-5.733h7.684V16.006h-6.223v2.533c0 4.045-.487 7.055-1.461 9.03zm21.51-17.297h6.223v3.058c1.98-2.39 4.557-3.584 7.732-3.584 3.457 0 6.144 1.163 8.062 3.488 1.948 2.357 2.923 5.208 2.923 8.553 0 3.28-1.006 6.1-3.018 8.457-2.011 2.39-4.667 3.584-7.967 3.584-3.175 0-5.752-1.195-7.732-3.584V42h-6.223V10.272zm6.27 11.515c0 1.72.597 3.217 1.792 4.491 1.194 1.21 2.687 1.816 4.478 1.816 1.729 0 3.143-.59 4.243-1.768 1.101-1.21 1.651-2.723 1.651-4.54 0-1.624-.503-3.089-1.509-4.395-.974-1.274-2.436-1.911-4.385-1.911-1.728 0-3.221.605-4.478 1.815-1.195 1.21-1.792 2.708-1.792 4.492z" fill="#fff"/></svg>