<svg width="197" height="70" fill="none" xmlns="http://www.w3.org/2000/svg"><path d="M20.828 49.968s.957-.463.974-2.147c.018-1.683.188-2.931 1.628-4.295 1.44-1.363 3.512-1.566 6.245-.31.718.364 3.028 1.949 2.583 5.297-.27 1.753-1.644 3.07-2.22 3.518-.576.447-2.635 2.337-2.67 3.318-.294-.46-.725-1.76-.14-2.728a2.6 2.6 0 011.006-.891s1.028-.54.446-1.488c-.58-.95-1.399-.76-1.924.036-.524.795-.65 1.645-.63 2.49.02.846-.238 2.572-2.173 3.47-.966.52-3.14.646-3.14.646s1.366-.796 1.112-1.947-.678-2.653.24-3.851a3.362 3.362 0 011.455-1.071c.388-.113 1.137-1.03 1.05-1.562-.087-.53-.413-.705-.957-.804-.234-.043-.678.321-.8.832-.125.46-.78 1.29-2.085 1.487z" fill="#FF9A23"/><path d="M46.93 13.477c-6.809 1.483-13.703 6.857-17.296 13.513-4.657 1.195-7.951 2.873-10.707 7.263-.15.239-.657 1.148-.914 1.984.925.012 1.424-.019 1.705-.044l5.062-.25-.507.934a.743.743 0 00.264.987l11.503 7.1a.742.742 0 001-.207l.609-.872 1.559 3.929c.103.263.341.719.663 1.342.283.547.55 1.023.657 1.15.139-.224.493-.8.604-.977 2.524-4.09 3.364-9.098 2.346-13.796 4.343-6.207 6.087-14.783 4.327-21.517a.747.747 0 00-.874-.539zm-3.712 14.07a3.707 3.707 0 01-2.309 1.664 3.707 3.707 0 01-2.81-.452 3.725 3.725 0 01-1.21-5.118 3.722 3.722 0 015.118-1.21 3.722 3.722 0 011.21 5.117zm19.694-7.307l7.2 13.952 7.2-13.952h.672L83.648 42h-4.736l-2.88-10.784L70.272 42h-.64l-5.664-10.816L61.088 42h-4.512l5.664-21.76h.672zm21.956 14.048c0-2.112.779-3.979 2.336-5.6 1.579-1.643 3.67-2.464 6.272-2.464 2.603 0 4.683.779 6.24 2.336 1.6 1.579 2.389 3.488 2.368 5.728-.043 2.197-.853 4.096-2.432 5.696-1.579 1.579-3.638 2.368-6.176 2.368-2.517 0-4.587-.757-6.208-2.272-1.6-1.536-2.4-3.467-2.4-5.792zm4.416 0c0 1.216.384 2.219 1.152 3.008.81.81 1.824 1.216 3.04 1.216 1.258 0 2.272-.405 3.04-1.216.768-.81 1.152-1.813 1.152-3.008 0-1.067-.363-2.027-1.088-2.88-.747-.896-1.781-1.344-3.104-1.344-1.195 0-2.187.395-2.976 1.184-.81.768-1.216 1.781-1.216 3.04zM114.485 42v-7.808l-8.608 8.16h-.896V26.576h4.224v7.808l8.64-8.16h.864V42h-4.224zm-7.68-22.304h3.584c0 .448.181.853.544 1.216.363.341.8.512 1.312.512.555 0 .992-.16 1.312-.48.32-.32.48-.736.48-1.248h3.584c.043 1.43-.437 2.613-1.44 3.552-.981.917-2.304 1.376-3.968 1.376-1.728 0-3.061-.448-4-1.344-.939-.917-1.408-2.112-1.408-3.584zM127.827 42h-4.544V20.688h4.544v9.472l7.072-9.472h4.96l-7.552 9.952L140.915 42h-5.696l-7.392-10.208V42zm24.798-4.768l2.912 2.208c-1.728 1.941-4.032 2.912-6.912 2.912-2.496 0-4.502-.747-6.016-2.24-1.515-1.515-2.272-3.445-2.272-5.792 0-2.133.768-4.021 2.304-5.664 1.536-1.621 3.477-2.432 5.824-2.432 1.344 0 2.538.245 3.584.736 1.045.49 1.856 1.141 2.432 1.952a9.017 9.017 0 011.28 2.56 8.57 8.57 0 01.448 2.72c0 .597-.032 1.152-.096 1.664h-11.328a3.712 3.712 0 001.504 2.08c.746.49 1.632.736 2.656.736 1.514 0 2.741-.48 3.68-1.44zm-7.936-4.576h6.912c-.107-.81-.448-1.472-1.024-1.984-.576-.512-1.291-.768-2.144-.768-.96 0-1.792.256-2.496.768-.683.512-1.099 1.173-1.248 1.984zM162.081 42v4.032h-4.224V38.16h1.984c.427-.79.736-1.685.928-2.688.192-.939.31-1.867.352-2.784.043-1.11.064-2.4.064-3.872v-2.24h12.448V38.16h2.656v7.872h-4.224V42h-9.984zm2.112-3.84h5.216v-7.744h-4.224v1.696c0 2.71-.33 4.725-.992 6.048zm14.601-11.584h4.224v2.048c1.344-1.6 3.093-2.4 5.248-2.4 2.346 0 4.17.779 5.472 2.336 1.322 1.579 1.984 3.488 1.984 5.728 0 2.197-.683 4.085-2.048 5.664-1.366 1.6-3.168 2.4-5.408 2.4-2.155 0-3.904-.8-5.248-2.4v7.872h-4.224V26.576zm4.256 7.712c0 1.152.405 2.155 1.216 3.008.81.81 1.824 1.216 3.04 1.216 1.173 0 2.133-.395 2.88-1.184.746-.81 1.12-1.824 1.12-3.04 0-1.088-.342-2.07-1.024-2.944-.662-.853-1.654-1.28-2.976-1.28-1.174 0-2.187.405-3.04 1.216-.811.81-1.216 1.813-1.216 3.008z" fill="#4A4A4A"/></svg>