<svg width="102" height="103" fill="none" xmlns="http://www.w3.org/2000/svg"><path d="M30.896 72.814s1.41-.682 1.435-3.163c.026-2.48.277-4.32 2.4-6.328 2.122-2.009 5.173-2.309 9.2-.458 1.059.536 4.463 2.872 3.806 7.805-.398 2.583-2.422 4.525-3.27 5.184-.848.658-3.884 3.443-3.936 4.89-.432-.678-1.066-2.593-.204-4.02.37-.56.88-1.014 1.481-1.314 0 0 1.515-.794.658-2.192-.856-1.399-2.062-1.12-2.835.052-.773 1.173-.957 2.425-.928 3.67.028 1.246-.35 3.79-3.202 5.113-1.425.767-4.626.952-4.626.952s2.012-1.173 1.637-2.87c-.375-1.695-.999-3.908.354-5.673.626-.77 1.266-1.225 2.144-1.578.572-.167 1.676-1.52 1.547-2.301-.128-.782-.609-1.04-1.41-1.186-.345-.063-1 .474-1.18 1.226-.182.678-1.148 1.9-3.07 2.191zm39.351-53.891C60.214 21.108 50.055 29.027 44.76 38.835c-6.862 1.76-11.716 4.233-15.776 10.701-.22.352-.968 1.692-1.347 2.924 1.363.017 2.099-.028 2.513-.065l7.458-.37-.746 1.377a1.095 1.095 0 00.389 1.455L54.2 65.32c.255.158.553.198.828.133.254-.06.487-.21.646-.439l.897-1.284 2.297 5.788c.152.388.503 1.06.977 1.978.418.807.81 1.507.968 1.696.204-.332.726-1.18.89-1.441 3.72-6.026 4.957-13.406 3.456-20.329 6.4-9.146 8.97-21.782 6.377-31.705a1.1 1.1 0 00-1.289-.794zm-5.471 20.734a5.462 5.462 0 01-3.401 2.45 5.462 5.462 0 01-4.14-.666 5.489 5.489 0 01-1.784-7.541 5.485 5.485 0 017.54-1.784 5.485 5.485 0 011.785 7.54z" fill="#fff"/></svg>