<svg width="44" height="18" viewBox="0 0 44 18" fill="none" xmlns="http://www.w3.org/2000/svg">
<path d="M4.46041 9.44314L7.42851 7.49546C9.23091 6.33394 9.70483 5.40852 9.89565 4.33507C10.252 2.33024 8.83479 0.775513 6.37216 0.337744C4.38312 -0.0158385 2.69297 0.514241 1.61883 1.6098L3.26832 3.14068C3.93693 2.49414 4.80657 2.27418 5.75373 2.44255C6.9219 2.65021 7.43197 3.262 7.27762 4.13023C7.18221 4.66696 6.90754 5.20439 5.76324 5.96178L0.785425 9.22955L0.490773 10.8871L8.84159 12.3716L9.21201 10.2878L4.46041 9.44314Z" fill="#262626"/>
<path d="M14.5681 13.585C17.2991 14.0704 19.6715 12.3589 20.3198 8.71228C20.968 5.0657 19.3308 2.64134 16.5998 2.15586C13.8846 1.67319 11.4964 3.38197 10.8481 7.02855C10.1999 10.6751 11.8529 13.1023 14.5681 13.585ZM14.9525 11.4223C13.6897 11.1978 12.9909 9.99875 13.437 7.48877C13.8832 4.97879 14.9525 4.09405 16.2153 4.31855C17.494 4.54585 18.1928 5.74488 17.7466 8.25486C17.3004 10.7648 16.2312 11.6496 14.9525 11.4223Z" fill="#262626"/>
<path d="M25.2823 15.4896C28.0132 15.975 30.3857 14.2635 31.0339 10.6169C31.6822 6.97031 30.0449 4.54594 27.314 4.06047C24.5988 3.5778 22.2105 5.28658 21.5623 8.93315C20.9141 12.5797 22.5671 15.0069 25.2823 15.4896ZM25.6667 13.3269C24.4038 13.1024 23.705 11.9034 24.1512 9.39337C24.5974 6.88339 25.6666 5.99866 26.9295 6.22316C28.2082 6.45046 28.907 7.64949 28.4608 10.1595C28.0146 12.6695 26.9454 13.5542 25.6667 13.3269Z" fill="#262626"/>
<path d="M38.1092 13.8451C41.0612 14.3699 43.1299 13.4511 43.5677 10.9885C44.0082 8.51006 42.383 6.93464 39.431 6.40987L34.6478 5.55959L33.1689 13.8788L31.6377 13.6066L31.4048 14.9169L32.936 15.1891L32.6835 16.6098L35.2566 17.0672L35.5091 15.6465L38.9189 16.2526L39.1518 14.9424L35.7421 14.3363L35.8992 13.4522L38.1092 13.8451ZM40.9759 10.544C40.7823 11.6333 39.8706 12.09 38.4498 11.8375L36.2556 11.4474L36.8505 8.10076L39.0448 8.49083C40.4655 8.74339 41.1668 9.47059 40.9759 10.544Z" fill="#262626"/>
</svg>
