<svg width="45" height="21" viewBox="0 0 45 21" fill="none" xmlns="http://www.w3.org/2000/svg">
<path d="M4.5537 9.95682L7.58013 8.10107C9.4173 6.99536 9.91937 6.08491 10.143 5.01782C10.5607 3.02486 9.1918 1.42741 6.74376 0.914329C4.7665 0.499921 3.06089 0.977925 1.95366 2.04003L3.55543 3.62077C4.24355 2.99504 5.11952 2.80185 6.06108 2.99918C7.22233 3.24257 7.7134 3.86971 7.5325 4.7328C7.42068 5.26635 7.12966 5.7951 5.96267 6.51705L0.886994 9.63064L0.541654 11.2784L8.84303 13.0182L9.27717 10.9468L4.5537 9.95682Z" fill="#262626"/>
<path d="M14.5296 14.4066C17.2444 14.9756 19.6683 13.3376 20.428 9.71261C21.1878 6.08762 19.6256 3.6142 16.9108 3.04521C14.2117 2.47951 11.7722 4.11425 11.0125 7.73924C10.2527 11.3642 11.8305 13.8409 14.5296 14.4066ZM14.9802 12.2567C13.7248 11.9936 13.0631 10.7737 13.586 8.27862C14.109 5.7835 15.2048 4.93198 16.4602 5.19509C17.7313 5.4615 18.3931 6.68139 17.8701 9.17651C17.3472 11.6716 16.2513 12.5232 14.9802 12.2567Z" fill="#262626"/>
<path d="M25.1804 16.6389C27.8952 17.2079 30.319 15.5698 31.0787 11.9449C31.8385 8.31987 30.2764 5.84645 27.5616 5.27746C24.8624 4.71176 22.4229 6.3465 21.6632 9.97148C20.9034 13.5965 22.4812 16.0732 25.1804 16.6389ZM25.6309 14.489C24.3755 14.2259 23.7138 13.006 24.2368 10.5109C24.7597 8.01575 25.8556 7.16422 27.111 7.42734C28.3821 7.69374 29.0438 8.91364 28.5208 11.4088C27.9979 13.9039 26.902 14.7554 25.6309 14.489Z" fill="#262626"/>
<path d="M38.0517 15.3885C40.9862 16.0035 43.0821 15.1486 43.5952 12.7006C44.1115 10.2369 42.5353 8.61234 39.6008 7.99731L34.846 7.00076L33.1127 15.2707L31.5905 14.9517L31.3175 16.2542L32.8397 16.5732L32.5437 17.9856L35.1016 18.5217L35.3976 17.1093L38.7872 17.8197L39.0602 16.5173L35.6706 15.8068L35.8548 14.9281L38.0517 15.3885ZM41.0183 12.1769C40.7914 13.2597 39.8661 13.6883 38.4537 13.3923L36.2725 12.9351L36.9697 9.60828L39.151 10.0654C40.5633 10.3614 41.242 11.1098 41.0183 12.1769Z" fill="#262626"/>
</svg>
