<svg width="34" height="15" viewBox="0 0 34 15" fill="none" xmlns="http://www.w3.org/2000/svg">
<path d="M4.78096 6.80122L3.84238 6.87788L3.84406 4.66598L8.65223 4.27327L8.47682 2.12572L1.4457 2.7L1.38452 9.25713L4.33199 9.01639C6.42322 8.84559 7.06458 9.39187 7.13879 10.3005C7.21569 11.2421 6.43825 11.871 5.10448 11.9799C3.90244 12.0781 2.66936 11.7963 1.74268 11.2068L0.856139 13.3413C2.04061 14.0428 3.75661 14.3517 5.35384 14.2212C8.64711 13.9522 9.99983 12.0457 9.83252 9.99729C9.66521 7.94886 8.18949 6.52282 4.78096 6.80122Z" fill="black"/>
<path d="M16.1677 13.338C19.0164 13.1053 20.9309 10.7704 20.6192 6.9544C20.3075 3.13838 18.0395 1.14512 15.1909 1.37779C12.3587 1.60911 10.4277 3.94532 10.7394 7.76135C11.0511 11.5774 13.3355 13.5693 16.1677 13.338ZM15.9829 11.0748C14.6656 11.1824 13.6544 10.1674 13.4399 7.54078C13.2253 4.91417 14.0584 3.74856 15.3757 3.64097C16.7095 3.53203 17.7206 4.54701 17.9352 7.17362C18.1497 9.80023 17.3166 10.9658 15.9829 11.0748Z" fill="black"/>
<path d="M28.5169 8.32155C31.5961 8.07005 33.416 6.60765 33.2056 4.03059C32.9937 1.43702 30.9606 0.289329 27.8814 0.540827L22.8921 0.948336L23.6031 9.65415L22.0059 9.78461L22.1179 11.1557L23.7151 11.0253L23.8366 12.512L26.5206 12.2928L26.3991 10.8061L29.9559 10.5156L29.8439 9.14443L26.2871 9.43493L26.2116 8.50984L28.5169 8.32155ZM30.5064 4.26768C30.5995 5.40753 29.811 6.10386 28.329 6.22491L26.0402 6.41185L25.7542 2.9097L28.043 2.72276C29.525 2.60171 30.4147 3.14435 30.5064 4.26768Z" fill="black"/>
</svg>
