<svg width="34" height="15" viewBox="0 0 34 15" fill="none" xmlns="http://www.w3.org/2000/svg">
<path d="M4.80049 6.86763L3.86191 6.94429L3.86359 4.73239L8.67176 4.33967L8.49635 2.19213L1.46523 2.76641L1.40405 9.32353L4.35152 9.0828C6.44275 8.91199 7.08411 9.45828 7.15832 10.3669C7.23523 11.3085 6.45778 11.9374 5.12401 12.0463C3.92197 12.1445 2.68889 11.8627 1.76221 11.2732L0.87567 13.4077C2.06015 14.1092 3.77614 14.4181 5.37338 14.2876C8.66664 14.0186 10.0194 12.1121 9.85205 10.0637C9.68474 8.01527 8.20902 6.58923 4.80049 6.86763Z" fill="black"/>
<path d="M16.1873 13.4044C19.0359 13.1717 20.9504 10.8368 20.6387 7.0208C20.327 3.20478 18.0591 1.21152 15.2104 1.44419C12.3782 1.67552 10.4472 4.01173 10.7589 7.82775C11.0706 11.6438 13.355 13.6357 16.1873 13.4044ZM16.0024 11.1412C14.6851 11.2488 13.6739 10.2338 13.4594 7.60719C13.2449 4.98057 14.0779 3.81497 15.3952 3.70737C16.729 3.59844 17.7402 4.61341 17.9547 7.24003C18.1692 9.86664 17.3362 11.0322 16.0024 11.1412Z" fill="black"/>
<path d="M28.5364 8.38795C31.6156 8.13646 33.4356 6.67405 33.2251 4.097C33.0133 1.50343 30.9801 0.355735 27.9009 0.607234L22.9116 1.01474L23.6227 9.72056L22.0254 9.85101L22.1374 11.2221L23.7346 11.0917L23.8561 12.5784L26.5401 12.3592L26.4187 10.8725L29.9754 10.582L29.8634 9.21084L26.3067 9.50134L26.2311 8.57624L28.5364 8.38795ZM30.526 4.33409C30.6191 5.47394 29.8305 6.17027 28.3486 6.29131L26.0598 6.47826L25.7737 2.97611L28.0625 2.78916C29.5445 2.66812 30.4342 3.21075 30.526 4.33409Z" fill="black"/>
</svg>
