<svg width="1109" height="151" viewBox="0 0 1109 151" fill="none" xmlns="http://www.w3.org/2000/svg">
<path d="M111.399 109.079L124.125 134.106C119.674 139.112 113.068 143.214 104.307 146.412C95.6839 149.471 86.4353 151 76.561 151C53.8917 151 35.4642 144.117 21.2785 130.352C7.09284 116.309 0 98.0249 0 75.5C0 53.5313 6.67562 35.4558 20.0269 21.2735C33.3781 7.09116 52.1533 0 76.3524 0C85.5314 0 94.0845 1.39042 102.012 4.17127C109.939 6.95211 116.267 10.6367 120.996 15.2251L106.184 40.2528C96.4488 34.2739 86.5049 31.2845 76.3524 31.2845C64.531 31.2845 54.7262 35.1777 46.9379 42.9641C39.2888 50.6114 35.4642 61.4567 35.4642 75.5C35.4642 88.2919 39.5669 98.9286 47.7724 107.41C55.9778 115.614 66.6171 119.715 79.6902 119.715C91.3725 119.715 101.942 116.17 111.399 109.079Z" fill="#DDDDDD"/>
<path d="M161.941 148.497H128.354L189.06 2.50276H218.892L279.599 148.497H243.926L231.826 117.838H174.04L161.941 148.497ZM219.309 86.5539L203.038 45.2583L186.557 86.5539H219.309Z" fill="#DDDDDD"/>
<path d="M351.906 108.453C351.906 102.335 344.743 95.8697 330.419 89.0566C326.246 87.2491 322.561 85.5806 319.362 84.0511C316.302 82.3826 312.826 80.1579 308.931 77.3771C305.176 74.4572 302.047 71.4678 299.544 68.4088C297.18 65.3499 295.094 61.5262 293.286 56.9378C291.617 52.3494 290.852 47.4134 290.991 42.1298C290.991 30.4503 295.302 20.5087 303.925 12.3052C312.547 4.10175 323.952 0 338.137 0C356.773 0 371.098 5.35313 381.112 16.0594L363.171 41.087C359.138 37.3329 355.591 34.7606 352.532 33.3702C349.611 31.9797 345.786 31.2845 341.058 31.2845C336.468 31.2845 332.852 32.2578 330.21 34.2044C327.707 36.151 326.455 38.7928 326.455 42.1298C326.455 45.884 327.915 49.221 330.836 52.1409C333.896 55.0608 337.651 57.494 342.101 59.4406C346.69 61.2482 351.628 63.5424 356.913 66.3232C362.197 69.104 367.065 72.0935 371.515 75.2914C376.105 78.3504 379.86 82.7302 382.781 88.4309C385.84 93.9926 387.37 100.528 387.37 108.036C387.37 120.55 382.572 130.839 372.976 138.903C363.658 146.968 351.767 151 337.303 151C326.733 151 316.72 148.845 307.263 144.535C297.666 140.224 291.199 134.384 287.862 127.015L306.845 104.282C310.6 109.148 315.329 112.972 321.031 115.753C326.733 118.395 332.435 119.715 338.137 119.715C342.449 119.715 345.786 118.742 348.151 116.796C350.654 114.71 351.906 111.929 351.906 108.453Z" fill="#DDDDDD"/>
<path d="M534.367 148.497H500.989V89.6823H447.793V148.497H414.415V2.50276H447.793V58.3978H500.989V2.50276H534.367V148.497Z" fill="#DDDDDD"/>
<path d="M571.893 148.08V2.91989C588.165 2.08563 602.907 1.6685 616.119 1.6685C632.252 1.6685 644.421 4.936 652.626 11.471C660.971 17.8669 665.143 26.6961 665.143 37.9586C665.143 52.2799 659.58 63.1252 648.454 70.4945V70.9116C654.713 73.2753 659.719 77.3075 663.474 83.0083C667.368 88.709 669.315 95.8002 669.315 104.282C669.315 118.881 664.17 130.074 653.878 137.861C643.726 145.508 630.374 149.331 613.824 149.331C594.493 149.331 580.516 148.914 571.893 148.08ZM618.205 89.4738H605.271V116.796C608.331 117.63 612.086 118.047 616.536 118.047C629.47 118.047 635.937 112.902 635.937 102.613C635.937 93.8536 630.027 89.4738 618.205 89.4738ZM615.702 32.953C613.199 32.953 609.722 33.2311 605.271 33.7873V60.2749H616.328C626.619 60.2749 631.765 55.5474 631.765 46.0925C631.765 42.0603 630.235 38.8623 627.176 36.4986C624.116 34.1349 620.291 32.953 615.702 32.953Z" fill="#DDDDDD"/>
<path d="M715.458 148.497H681.871L742.578 2.50276H772.409L833.116 148.497H797.443L785.343 117.838H727.558L715.458 148.497ZM772.827 86.5539L756.555 45.2583L740.074 86.5539H772.827Z" fill="#DDDDDD"/>
<path d="M947.685 109.079L960.411 134.106C955.96 139.112 949.354 143.214 940.592 146.412C931.97 149.471 922.721 151 912.847 151C890.177 151 871.75 144.117 857.564 130.352C843.379 116.309 836.286 98.0249 836.286 75.5C836.286 53.5313 842.961 35.4558 856.313 21.2735C869.664 7.09116 888.439 0 912.638 0C921.817 0 930.37 1.39042 938.298 4.17127C946.225 6.95211 952.553 10.6367 957.281 15.2251L942.47 40.2528C932.735 34.2739 922.791 31.2845 912.638 31.2845C900.817 31.2845 891.012 35.1777 883.224 42.9641C875.575 50.6114 871.75 61.4567 871.75 75.5C871.75 88.2919 875.853 98.9286 884.058 107.41C892.264 115.614 902.903 119.715 915.976 119.715C927.658 119.715 938.228 116.17 947.685 109.079Z" fill="#DDDDDD"/>
<path d="M1016.79 148.497H983.415V2.50276H1016.79V66.1146L1064.57 2.50276H1104.62L1049.75 69.8688L1109 148.497H1066.65L1016.79 79.0456V148.497Z" fill="#DDDDDD"/>
</svg>
