<svg width="206" height="42" viewBox="0 0 206 42" fill="none" xmlns="http://www.w3.org/2000/svg">
<path d="M10.3332 0.811799L20.9408 21.6446L31.5484 0.811799H32.5385L40.8831 33.3033H33.9057L29.6626 17.2009L21.1765 33.3033H20.2337L11.889 17.1531L7.64597 33.3033H0.998535L9.34318 0.811799H10.3332Z" fill="white"/>
<path d="M42.6801 21.7879C42.6801 18.6343 43.8273 15.8471 46.1217 13.4261C48.4475 10.9733 51.5277 9.74695 55.3621 9.74695C59.1966 9.74695 62.261 10.9096 64.5554 13.235C66.9126 15.5922 68.0755 18.4432 68.0441 21.7879C67.9812 25.0689 66.7869 27.9039 64.4611 30.293C62.1353 32.6502 59.1023 33.8289 55.3621 33.8289C51.6534 33.8289 48.6047 32.698 46.216 30.4364C43.8588 28.1429 42.6801 25.26 42.6801 21.7879ZM49.1861 21.7879C49.1861 23.6036 49.7519 25.1008 50.8834 26.2794C52.0777 27.4898 53.5706 28.0951 55.3621 28.0951C57.2165 28.0951 58.7094 27.4898 59.8409 26.2794C60.9724 25.0689 61.5381 23.5718 61.5381 21.7879C61.5381 20.1952 61.0038 18.7617 59.9352 17.4876C58.8351 16.1497 57.3108 15.4807 55.3621 15.4807C53.602 15.4807 52.1406 16.07 50.9776 17.2487C49.7833 18.3954 49.1861 19.9085 49.1861 21.7879Z" fill="white"/>
<path d="M86.3146 33.3033V21.6446L73.6326 33.8289H72.3126V10.2725H78.5357V21.9313L91.2648 9.74695H92.5377V33.3033H86.3146ZM74.9998 -0.000488281H80.28C80.28 0.668453 80.5472 1.27369 81.0815 1.81521C81.6158 2.32488 82.2601 2.57972 83.0145 2.57972C83.8316 2.57972 84.4759 2.34081 84.9474 1.86299C85.4188 1.38518 85.6546 0.764016 85.6546 -0.000488281H90.9348C90.9977 2.13375 90.2905 3.90167 88.8133 5.30327C87.3675 6.673 85.4188 7.35787 82.9673 7.35787C80.4215 7.35787 78.4571 6.68893 77.0742 5.35105C75.6913 3.98131 74.9998 2.19746 74.9998 -0.000488281Z" fill="white"/>
<path d="M105.97 33.3033H99.2757V1.48074H105.97V15.6241L116.389 1.48074H123.697L112.571 16.3408L125.253 33.3033H116.861L105.97 18.0609V33.3033Z" fill="white"/>
<path d="M142.505 26.1838L146.795 29.4807C144.249 32.3795 140.855 33.8289 136.612 33.8289C132.934 33.8289 129.98 32.714 127.748 30.4842C125.517 28.2225 124.401 25.3397 124.401 21.8357C124.401 18.6503 125.533 15.8311 127.795 13.3784C130.058 10.9574 132.919 9.74695 136.376 9.74695C138.356 9.74695 140.116 10.1133 141.656 10.8459C143.196 11.5786 144.39 12.5501 145.239 13.7606C146.088 14.9711 146.716 16.2452 147.125 17.5831C147.565 18.921 147.785 20.2748 147.785 21.6446C147.785 22.5365 147.738 23.3647 147.643 24.1292H130.954C131.331 25.4352 132.07 26.4705 133.17 27.235C134.27 27.9677 135.574 28.334 137.083 28.334C139.315 28.334 141.122 27.6173 142.505 26.1838ZM130.813 19.351H140.996C140.839 18.1406 140.336 17.1531 139.487 16.3886C138.639 15.6241 137.586 15.2418 136.329 15.2418C134.914 15.2418 133.689 15.6241 132.651 16.3886C131.646 17.1531 131.033 18.1406 130.813 19.351Z" fill="white"/>
<path d="M156.437 33.3033V39.3237H150.214V27.5695H153.137C153.766 26.3909 154.221 25.053 154.504 23.5558C154.787 22.1542 154.96 20.7686 155.023 19.3988C155.086 17.7424 155.117 15.8152 155.117 13.6173V10.2725H173.456V27.5695H177.369V39.3237H171.146V33.3033H156.437ZM159.549 27.5695H167.233V16.0063H161.01V18.5388C161.01 22.5843 160.523 25.5945 159.549 27.5695Z" fill="white"/>
<path d="M181.059 10.2725H187.282V13.3306C189.262 10.9415 191.839 9.74695 195.014 9.74695C198.471 9.74695 201.158 10.9096 203.076 13.235C205.024 15.5922 205.999 18.4432 205.999 21.7879C205.999 25.0689 204.993 27.888 202.981 30.2452C200.97 32.6343 198.314 33.8289 195.014 33.8289C191.839 33.8289 189.262 32.6343 187.282 30.2452V41.9995H181.059V10.2725ZM187.329 21.7879C187.329 23.508 187.926 25.0052 189.121 26.2794C190.315 27.4898 191.808 28.0951 193.599 28.0951C195.328 28.0951 196.742 27.5058 197.842 26.3272C198.943 25.1167 199.493 23.6036 199.493 21.7879C199.493 20.1633 198.99 18.698 197.984 17.392C197.01 16.1178 195.548 15.4807 193.599 15.4807C191.871 15.4807 190.378 16.086 189.121 17.2964C187.926 18.5069 187.329 20.0041 187.329 21.7879Z" fill="white"/>
</svg>
