<svg width="197" height="70" viewBox="0 0 197 70" fill="none" xmlns="http://www.w3.org/2000/svg">
<path d="M20.8284 49.9679C20.8284 49.9679 21.7848 49.5046 21.8024 47.8211C21.8199 46.1375 21.9901 44.8896 23.4305 43.5264C24.8709 42.1633 26.9419 41.9598 29.6751 43.2156C30.3931 43.5797 32.7032 45.1646 32.2576 48.5129C31.9877 50.2655 30.6137 51.5838 30.0381 52.0307C29.4625 52.4777 27.4027 54.3676 27.3672 55.3492C27.0739 54.889 26.6433 53.5894 27.2284 52.6208C27.4797 52.2408 27.8265 51.9334 28.2339 51.7296C28.2339 51.7296 29.2619 51.1908 28.6805 50.2416C28.0992 49.2925 27.281 49.4818 26.7565 50.2775C26.2319 51.0731 26.1069 51.9231 26.1263 52.7683C26.1458 53.6136 25.8885 55.3404 23.9532 56.2376C22.9866 56.7583 20.8138 56.8841 20.8138 56.8841C20.8138 56.8841 22.1794 56.0877 21.9251 54.9367C21.6707 53.7857 21.2471 52.2838 22.165 51.086C22.5897 50.563 23.024 50.2546 23.6199 50.0149C24.0083 49.902 24.7574 48.9841 24.6703 48.4535C24.5831 47.9228 24.257 47.7483 23.7135 47.6489C23.4793 47.606 23.0351 47.9704 22.9125 48.4807C22.7885 48.9412 22.1332 49.7707 20.8284 49.9679Z" fill="#FF9A23"/>
<path d="M46.9305 13.4772C40.1214 14.96 33.2273 20.3339 29.6335 26.9902C24.9769 28.1852 21.6827 29.863 18.9272 34.2529C18.7774 34.4916 18.2705 35.4013 18.0132 36.2369C18.9383 36.2486 19.4372 36.2182 19.7185 36.1929L24.7796 35.9421L24.2732 36.8765C24.0849 37.2236 24.201 37.6562 24.5374 37.8639L36.0398 44.9646C36.2134 45.0718 36.4154 45.0988 36.6021 45.0547C36.7743 45.0139 36.9322 44.9124 37.0406 44.7568L37.649 43.8854L39.2079 47.8138C39.3113 48.0767 39.5492 48.533 39.8712 49.1556C40.1545 49.7034 40.4206 50.1785 40.5279 50.3068C40.6668 50.0818 41.0207 49.5064 41.1316 49.3289C43.6561 45.2395 44.4961 40.2312 43.4776 35.5328C47.821 29.3257 49.5654 20.7504 47.8054 14.016C47.7041 13.6335 47.3194 13.3959 46.9305 13.4772ZM43.2175 27.5479C42.6794 28.4195 41.8367 28.9918 40.909 29.2113C39.9813 29.4308 38.9715 29.2968 38.0999 28.7588C36.3564 27.6812 35.8133 25.3858 36.8891 23.6412C37.9663 21.8963 40.2617 21.3532 42.0066 22.4304C43.7516 23.5076 44.295 25.8044 43.2175 27.5479Z" fill="#4A4A4A"/>
<path d="M62.9121 20.24L70.1121 34.192L77.3121 20.24H77.9841L83.6481 42H78.9121L76.0321 31.216L70.2721 42H69.6321L63.9681 31.184L61.0881 42H56.5761L62.2401 20.24H62.9121ZM84.8679 34.288C84.8679 32.176 85.6465 30.3093 87.2039 28.688C88.7825 27.0453 90.8732 26.224 93.4759 26.224C96.0785 26.224 98.1585 27.0027 99.7159 28.56C101.316 30.1387 102.105 32.048 102.084 34.288C102.041 36.4853 101.231 38.384 99.6519 39.984C98.0732 41.5627 96.0145 42.352 93.4759 42.352C90.9585 42.352 88.8892 41.5947 87.2679 40.08C85.6679 38.544 84.8679 36.6133 84.8679 34.288ZM89.2839 34.288C89.2839 35.504 89.6679 36.5067 90.4359 37.296C91.2465 38.1067 92.2599 38.512 93.4759 38.512C94.7345 38.512 95.7479 38.1067 96.5159 37.296C97.2839 36.4853 97.6679 35.4827 97.6679 34.288C97.6679 33.2213 97.3052 32.2613 96.5799 31.408C95.8332 30.512 94.7985 30.064 93.4759 30.064C92.2812 30.064 91.2892 30.4587 90.4999 31.248C89.6892 32.016 89.2839 33.0293 89.2839 34.288ZM114.485 42V34.192L105.877 42.352H104.981V26.576H109.205V34.384L117.845 26.224H118.709V42H114.485ZM106.805 19.696H110.389C110.389 20.144 110.57 20.5493 110.933 20.912C111.296 21.2533 111.733 21.424 112.245 21.424C112.8 21.424 113.237 21.264 113.557 20.944C113.877 20.624 114.037 20.208 114.037 19.696H117.621C117.664 21.1253 117.184 22.3093 116.181 23.248C115.2 24.1653 113.877 24.624 112.213 24.624C110.485 24.624 109.152 24.176 108.213 23.28C107.274 22.3627 106.805 21.168 106.805 19.696ZM127.827 42H123.283V20.688H127.827V30.16L134.899 20.688H139.859L132.307 30.64L140.915 42H135.219L127.827 31.792V42ZM152.625 37.232L155.537 39.44C153.809 41.3813 151.505 42.352 148.625 42.352C146.129 42.352 144.123 41.6053 142.609 40.112C141.094 38.5973 140.337 36.6667 140.337 34.32C140.337 32.1867 141.105 30.2987 142.641 28.656C144.177 27.0347 146.118 26.224 148.465 26.224C149.809 26.224 151.003 26.4693 152.049 26.96C153.094 27.4507 153.905 28.1013 154.481 28.912C155.057 29.7227 155.483 30.576 155.761 31.472C156.059 32.368 156.209 33.2747 156.209 34.192C156.209 34.7893 156.177 35.344 156.113 35.856H144.785C145.041 36.7307 145.542 37.424 146.289 37.936C147.035 38.4267 147.921 38.672 148.945 38.672C150.459 38.672 151.686 38.192 152.625 37.232ZM144.689 32.656H151.601C151.494 31.8453 151.153 31.184 150.577 30.672C150.001 30.16 149.286 29.904 148.433 29.904C147.473 29.904 146.641 30.16 145.937 30.672C145.254 31.184 144.838 31.8453 144.689 32.656ZM162.081 42V46.032H157.857V38.16H159.841C160.268 37.3707 160.577 36.4747 160.769 35.472C160.961 34.5333 161.079 33.6053 161.121 32.688C161.164 31.5787 161.185 30.288 161.185 28.816V26.576H173.633V38.16H176.289V46.032H172.065V42H162.081ZM164.193 38.16H169.409V30.416H165.185V32.112C165.185 34.8213 164.855 36.8373 164.193 38.16ZM178.794 26.576H183.018V28.624C184.362 27.024 186.111 26.224 188.266 26.224C190.612 26.224 192.436 27.0027 193.738 28.56C195.06 30.1387 195.722 32.048 195.722 34.288C195.722 36.4853 195.039 38.3733 193.674 39.952C192.308 41.552 190.506 42.352 188.266 42.352C186.111 42.352 184.362 41.552 183.018 39.952V47.824H178.794V26.576ZM183.05 34.288C183.05 35.44 183.455 36.4427 184.266 37.296C185.076 38.1067 186.09 38.512 187.306 38.512C188.479 38.512 189.439 38.1173 190.186 37.328C190.932 36.5173 191.306 35.504 191.306 34.288C191.306 33.2 190.964 32.2187 190.282 31.344C189.62 30.4907 188.628 30.064 187.306 30.064C186.132 30.064 185.119 30.4693 184.266 31.28C183.455 32.0907 183.05 33.0933 183.05 34.288Z" fill="#4A4A4A"/>
</svg>
