<svg width="18" height="18" viewBox="0 0 18 18" fill="none" xmlns="http://www.w3.org/2000/svg">
<path d="M16.3352 7.87363H11.1978C11.0309 7.87363 10.8956 7.73832 10.8956 7.57143V2.43407C10.8956 1.59963 10.2191 0.92308 9.38463 0.92308C8.5502 0.92308 7.87364 1.59963 7.87364 2.43407V7.57143C7.87364 7.73832 7.73833 7.87363 7.57145 7.87363H2.43408C1.59965 7.87363 0.923096 8.55018 0.923096 9.38462C0.923096 10.2191 1.59965 10.8956 2.43408 10.8956H7.57145C7.73833 10.8956 7.87364 11.0309 7.87364 11.1978V16.3352C7.87364 17.1696 8.5502 17.8462 9.38463 17.8462C10.2191 17.8462 10.8956 17.1696 10.8956 16.3352V11.1978C10.8956 11.0309 11.0309 10.8956 11.1978 10.8956H16.3352C17.1696 10.8956 17.8462 10.2191 17.8462 9.38462C17.8462 8.55018 17.1696 7.87363 16.3352 7.87363Z" fill="#C42047"/>
</svg>
