<svg width="102" height="103" viewBox="0 0 102 103" fill="none" xmlns="http://www.w3.org/2000/svg">
<path d="M30.8963 72.8143C30.8963 72.8143 32.3056 72.1317 32.3314 69.651C32.3573 67.1702 32.608 65.3314 34.7304 63.3228C36.8528 61.3141 39.9045 61.0144 43.9319 62.8647C44.9899 63.4012 48.3938 65.7366 47.7373 70.6703C47.3395 73.2528 45.3149 75.1953 44.4668 75.8539C43.6186 76.5124 40.5834 79.2973 40.5312 80.7437C40.099 80.0656 39.4646 78.1506 40.3267 76.7234C40.697 76.1634 41.2079 75.7105 41.8082 75.4101C41.8082 75.4101 43.323 74.6163 42.4664 73.2177C41.6098 71.8191 40.4043 72.0981 39.6313 73.2705C38.8584 74.4429 38.6741 75.6953 38.7028 76.9408C38.7315 78.1863 38.3523 80.7307 35.5006 82.0527C34.0764 82.82 30.8748 83.0054 30.8748 83.0054C30.8748 83.0054 32.887 81.8318 32.5122 80.1358C32.1374 78.4398 31.5133 76.2269 32.8657 74.4618C33.4916 73.6912 34.1315 73.2368 35.0095 72.8836C35.5818 72.7172 36.6857 71.3647 36.5572 70.5828C36.4288 69.8009 35.9484 69.5437 35.1474 69.3972C34.8024 69.3341 34.1479 69.871 33.9672 70.6229C33.7845 71.3014 32.8188 72.5237 30.8963 72.8143Z" fill="white"/>
<path d="M70.2472 18.9233C60.2139 21.1081 50.0554 29.0267 44.76 38.8347C37.8984 40.5956 33.0444 43.0679 28.9842 49.5364C28.7634 49.8881 28.0165 51.2285 27.6374 52.4598C29.0005 52.4771 29.7356 52.4322 30.1502 52.3949L37.6077 52.0254L36.8616 53.4022C36.584 53.9137 36.7551 54.5511 37.2509 54.8572L54.1997 65.3201C54.4555 65.478 54.7532 65.5179 55.0283 65.4528C55.282 65.3928 55.5146 65.2432 55.6743 65.014L56.5708 63.7299L58.8678 69.5184C59.0203 69.9057 59.3708 70.5781 59.8453 71.4955C60.2627 72.3028 60.6549 73.0027 60.8129 73.1919C61.0175 72.8603 61.5391 72.0125 61.7024 71.7509C65.4223 65.7251 66.66 58.3454 65.1593 51.4223C71.5593 42.2761 74.1296 29.6404 71.5363 19.7172C71.3871 19.1535 70.8201 18.8035 70.2472 18.9233ZM64.776 39.6565C63.9832 40.9408 62.7414 41.7841 61.3745 42.1075C60.0075 42.4309 58.5196 42.2335 57.2353 41.4407C54.6662 39.8529 53.866 36.4707 55.4511 33.9C57.0384 31.3288 60.4206 30.5286 62.9918 32.1158C65.563 33.7031 66.3638 37.0875 64.776 39.6565Z" fill="white"/>
</svg>
