<svg width="64" height="305" viewBox="0 0 64 305" fill="none" xmlns="http://www.w3.org/2000/svg">
<path d="M54.4681 145.331C46.8426 145.331 42.4851 140.443 42.4851 128.713L42.4851 39.1026C42.4851 12.7083 30.7745 0 8.71489 0L0 0L0 14.0117L7.89787 14.0117C22.3319 14.0117 28.8681 23.4615 28.8681 40.406L28.8681 128.387C28.8681 143.05 32.4085 149.241 40.034 152.5C32.4085 155.759 28.8681 161.95 28.8681 176.613L28.8681 264.594C28.8681 281.538 22.3319 290.988 7.89787 290.988H0L0 305H8.71489C30.7745 305 42.4851 292.292 42.4851 265.897L42.4851 176.287C42.4851 164.557 46.8426 159.343 54.4681 159.343H64V145.331H54.4681Z" fill="#BCBCBC"/>
</svg>
