<svg width="31" height="31" viewBox="0 0 31 31" fill="none" xmlns="http://www.w3.org/2000/svg">
<path d="M15.5 31C24.0604 31 31 24.0604 31 15.5C31 6.93959 24.0604 0 15.5 0C6.93959 0 0 6.93959 0 15.5C0 24.0604 6.93959 31 15.5 31Z" fill="#039BE5"/>
<path d="M7.09264 15.1642L22.0372 9.40207C22.7308 9.15148 23.3366 9.57127 23.1119 10.6201L23.1132 10.6188L20.5686 22.6068C20.38 23.4567 19.875 23.6634 19.1684 23.2629L15.2934 20.4071L13.4244 22.2076C13.2177 22.4143 13.0433 22.5887 12.6429 22.5887L12.9181 18.6452L20.0997 12.1572C20.4123 11.8821 20.03 11.7271 19.6179 12.0009L10.7429 17.5886L6.91697 16.3951C6.08643 16.1316 6.06835 15.5646 7.09264 15.1642Z" fill="white"/>
</svg>
